<svg width="12" height="12" viewBox="0 0 12 12" fill="none" xmlns="http://www.w3.org/2000/svg">
<path d="M10.8199 9.03912L11.1302 9.71091C11.2159 9.89641 11.1454 10.1214 10.9728 10.2135L9.54499 10.9843C9.19496 11.171 8.76952 11.0123 8.60304 10.6314L7.23388 7.5H4.1875C3.84018 7.5 3.54572 7.22555 3.49658 6.85605C2.75749 1.29628 2.79995 1.64166 2.79167 1.5C2.79167 0.647858 3.4529 -0.0383213 4.25406 0.00166311C4.9797 0.037874 5.5637 0.679124 5.58283 1.4595C5.60176 2.23137 5.07789 2.87566 4.39184 2.98385L4.49369 3.75002H7.32812C7.52086 3.75002 7.67708 3.91791 7.67708 4.12502V4.87502C7.67708 5.08214 7.52086 5.25002 7.32812 5.25002H4.6931L4.79281 6.00002H7.67708C7.80959 6.00003 7.93935 6.04056 8.05121 6.1169C8.16307 6.19323 8.25239 6.30221 8.30874 6.43109L9.56314 9.3L10.3522 8.86995C10.5248 8.77786 10.7342 8.85361 10.8199 9.03912ZM6.79068 8.25H6.25621C6.08635 9.52041 5.06696 10.5 3.83854 10.5C2.49163 10.5 1.39583 9.32243 1.39583 7.875C1.39583 6.90223 1.89079 6.05135 2.62425 5.59791C2.54329 4.98935 2.47499 4.47619 2.41732 4.04323C1.0023 4.6515 0 6.13976 0 7.875C0 10.1495 1.72196 12 3.83854 12C5.40602 12 6.75683 10.985 7.35233 9.53456L6.79068 8.25Z" fill="#2196F3"/>
</svg>
