<svg width="14" height="14" viewBox="0 0 14 14" fill="none" xmlns="http://www.w3.org/2000/svg">
<path d="M13.3438 3.5H13.125V2.1875C13.125 0.9625 10.4125 0 7 0C3.5875 0 0.875 0.9625 0.875 2.1875V3.5H0.65625C0.293945 3.5 0 3.79367 0 4.15625V6.34375C0 6.70605 0.293945 7 0.65625 7H0.875V11.375C0.875 11.8582 1.26684 12.25 1.75 12.25V13.125C1.75 13.6082 2.14184 14 2.625 14H3.5C3.98316 14 4.375 13.6082 4.375 13.125V12.25H9.625V13.125C9.625 13.6082 10.0168 14 10.5 14H11.375C11.8582 14 12.25 13.6082 12.25 13.125V12.25H12.425C12.8625 12.25 13.125 11.9 13.125 11.55V7H13.3438C13.7061 7 14 6.70605 14 6.34375V4.15625C14 3.79367 13.7061 3.5 13.3438 3.5ZM4.375 1.96875C4.375 1.84789 4.47289 1.75 4.59375 1.75H9.40625C9.52711 1.75 9.625 1.84789 9.625 1.96875V2.40625C9.625 2.52711 9.52711 2.625 9.40625 2.625H4.59375C4.47289 2.625 4.375 2.52711 4.375 2.40625V1.96875ZM3.0625 10.9375C2.57934 10.9375 2.1875 10.5457 2.1875 10.0625C2.1875 9.57934 2.57934 9.1875 3.0625 9.1875C3.54566 9.1875 3.9375 9.57934 3.9375 10.0625C3.9375 10.5457 3.54566 10.9375 3.0625 10.9375ZM6.5625 7.875H3.5C3.01684 7.875 2.625 7.48316 2.625 7V4.375C2.625 3.89184 3.01684 3.5 3.5 3.5H6.5625V7.875ZM7.4375 7.875V3.5H10.5C10.9832 3.5 11.375 3.89184 11.375 4.375V7C11.375 7.48316 10.9832 7.875 10.5 7.875H7.4375ZM10.9375 10.9375C10.4543 10.9375 10.0625 10.5457 10.0625 10.0625C10.0625 9.57934 10.4543 9.1875 10.9375 9.1875C11.4207 9.1875 11.8125 9.57934 11.8125 10.0625C11.8125 10.5457 11.4207 10.9375 10.9375 10.9375Z" fill="white"/>
</svg>
