<svg width="52" height="55" viewBox="0 0 52 55" fill="none" xmlns="http://www.w3.org/2000/svg">
<path d="M46.8906 11.25H46.1875V7.03125C46.1875 3.09375 37.4688 0 26.5 0C15.5312 0 6.8125 3.09375 6.8125 7.03125V11.25H6.10938C4.94482 11.25 4 12.1939 4 13.3594V20.3906C4 21.5552 4.94482 22.5 6.10938 22.5H6.8125V36.5625C6.8125 38.1155 8.07197 39.375 9.625 39.375V42.1875C9.625 43.7405 10.8845 45 12.4375 45H15.25C16.803 45 18.0625 43.7405 18.0625 42.1875V39.375H34.9375V42.1875C34.9375 43.7405 36.197 45 37.75 45H40.5625C42.1155 45 43.375 43.7405 43.375 42.1875V39.375H43.9375C45.3438 39.375 46.1875 38.25 46.1875 37.125V22.5H46.8906C48.0552 22.5 49 21.5552 49 20.3906V13.3594C49 12.1939 48.0552 11.25 46.8906 11.25ZM18.0625 6.32812C18.0625 5.93965 18.3771 5.625 18.7656 5.625H34.2344C34.6229 5.625 34.9375 5.93965 34.9375 6.32812V7.73438C34.9375 8.12285 34.6229 8.4375 34.2344 8.4375H18.7656C18.3771 8.4375 18.0625 8.12285 18.0625 7.73438V6.32812ZM13.8438 35.1562C12.2907 35.1562 11.0312 33.8968 11.0312 32.3438C11.0312 30.7907 12.2907 29.5312 13.8438 29.5312C15.3968 29.5312 16.6562 30.7907 16.6562 32.3438C16.6562 33.8968 15.3968 35.1562 13.8438 35.1562ZM25.0938 25.3125H15.25C13.697 25.3125 12.4375 24.053 12.4375 22.5V14.0625C12.4375 12.5095 13.697 11.25 15.25 11.25H25.0938V25.3125ZM27.9062 25.3125V11.25H37.75C39.303 11.25 40.5625 12.5095 40.5625 14.0625V22.5C40.5625 24.053 39.303 25.3125 37.75 25.3125H27.9062ZM39.1562 35.1562C37.6032 35.1562 36.3438 33.8968 36.3438 32.3438C36.3438 30.7907 37.6032 29.5312 39.1562 29.5312C40.7093 29.5312 41.9688 30.7907 41.9688 32.3438C41.9688 33.8968 40.7093 35.1562 39.1562 35.1562Z" fill="#32B18B"/>
<path d="M7.792 43.24C8.44267 43.3787 8.96533 43.704 9.36 44.216C9.75467 44.7173 9.952 45.2933 9.952 45.944C9.952 46.8827 9.62133 47.6293 8.96 48.184C8.30933 48.728 7.39733 49 6.224 49H0.992V37.768H6.048C7.18933 37.768 8.08 38.0293 8.72 38.552C9.37067 39.0747 9.696 39.784 9.696 40.68C9.696 41.3413 9.52 41.8907 9.168 42.328C8.82667 42.7653 8.368 43.0693 7.792 43.24ZM3.728 42.312H5.52C5.968 42.312 6.30933 42.216 6.544 42.024C6.78933 41.8213 6.912 41.528 6.912 41.144C6.912 40.76 6.78933 40.4667 6.544 40.264C6.30933 40.0613 5.968 39.96 5.52 39.96H3.728V42.312ZM5.744 46.792C6.20267 46.792 6.55467 46.6907 6.8 46.488C7.056 46.2747 7.184 45.9707 7.184 45.576C7.184 45.1813 7.05067 44.872 6.784 44.648C6.528 44.424 6.17067 44.312 5.712 44.312H3.728V46.792H5.744ZM20.3549 40.072V49H17.6189V47.784C17.3415 48.1787 16.9629 48.4987 16.4829 48.744C16.0135 48.9787 15.4909 49.096 14.9149 49.096C14.2322 49.096 13.6295 48.9467 13.1069 48.648C12.5842 48.3387 12.1789 47.896 11.8909 47.32C11.6029 46.744 11.4589 46.0667 11.4589 45.288V40.072H14.1789V44.92C14.1789 45.5173 14.3335 45.9813 14.6429 46.312C14.9522 46.6427 15.3682 46.808 15.8909 46.808C16.4242 46.808 16.8455 46.6427 17.1549 46.312C17.4642 45.9813 17.6189 45.5173 17.6189 44.92V40.072H20.3549ZM25.9521 49.128C25.1735 49.128 24.4801 48.9947 23.8721 48.728C23.2641 48.4613 22.7841 48.0987 22.4321 47.64C22.0801 47.1707 21.8828 46.648 21.8401 46.072H24.5441C24.5761 46.3813 24.7201 46.632 24.9761 46.824C25.2321 47.016 25.5468 47.112 25.9201 47.112C26.2615 47.112 26.5228 47.048 26.7041 46.92C26.8961 46.7813 26.9921 46.6053 26.9921 46.392C26.9921 46.136 26.8588 45.9493 26.5921 45.832C26.3255 45.704 25.8935 45.5653 25.2961 45.416C24.6561 45.2667 24.1228 45.112 23.6961 44.952C23.2695 44.7813 22.9015 44.52 22.5921 44.168C22.2828 43.8053 22.1281 43.32 22.1281 42.712C22.1281 42.2 22.2668 41.736 22.5441 41.32C22.8321 40.8933 23.2481 40.5573 23.7921 40.312C24.3468 40.0667 25.0028 39.944 25.7601 39.944C26.8801 39.944 27.7601 40.2213 28.4001 40.776C29.0508 41.3307 29.4241 42.0667 29.5201 42.984H26.9921C26.9495 42.6747 26.8108 42.4293 26.5761 42.248C26.3521 42.0667 26.0535 41.976 25.6801 41.976C25.3601 41.976 25.1148 42.04 24.9441 42.168C24.7735 42.2853 24.6881 42.4507 24.6881 42.664C24.6881 42.92 24.8215 43.112 25.0881 43.24C25.3655 43.368 25.7921 43.496 26.3681 43.624C27.0295 43.7947 27.5681 43.9653 27.9841 44.136C28.4001 44.296 28.7628 44.5627 29.0721 44.936C29.3921 45.2987 29.5575 45.7893 29.5681 46.408C29.5681 46.9307 29.4188 47.4 29.1201 47.816C28.8321 48.2213 28.4108 48.5413 27.8561 48.776C27.3121 49.0107 26.6775 49.128 25.9521 49.128ZM30.698 44.52C30.698 43.6027 30.8687 42.7973 31.21 42.104C31.562 41.4107 32.0367 40.8773 32.634 40.504C33.2313 40.1307 33.898 39.944 34.634 39.944C35.2633 39.944 35.8127 40.072 36.282 40.328C36.762 40.584 37.13 40.92 37.386 41.336V40.072H40.122V49H37.386V47.736C37.1193 48.152 36.746 48.488 36.266 48.744C35.7967 49 35.2473 49.128 34.618 49.128C33.8927 49.128 33.2313 48.9413 32.634 48.568C32.0367 48.184 31.562 47.6453 31.21 46.952C30.8687 46.248 30.698 45.4373 30.698 44.52ZM37.386 44.536C37.386 43.8533 37.194 43.3147 36.81 42.92C36.4367 42.5253 35.978 42.328 35.434 42.328C34.89 42.328 34.426 42.5253 34.042 42.92C33.6687 43.304 33.482 43.8373 33.482 44.52C33.482 45.2027 33.6687 45.7467 34.042 46.152C34.426 46.5467 34.89 46.744 35.434 46.744C35.978 46.744 36.4367 46.5467 36.81 46.152C37.194 45.7573 37.386 45.2187 37.386 44.536ZM32.538 39.32C32.794 37.7413 33.53 36.952 34.746 36.952C34.9807 36.952 35.1833 36.9893 35.354 37.064C35.5353 37.128 35.754 37.2293 36.01 37.368C36.202 37.4747 36.3567 37.5547 36.474 37.608C36.5913 37.6507 36.714 37.672 36.842 37.672C37.2367 37.672 37.466 37.432 37.53 36.952H38.938C38.682 38.5307 37.946 39.32 36.73 39.32C36.4953 39.32 36.2873 39.288 36.106 39.224C35.9353 39.1493 35.722 39.0427 35.466 38.904C35.274 38.7973 35.1193 38.7227 35.002 38.68C34.8847 38.6267 34.762 38.6 34.634 38.6C34.2393 38.6 34.0047 38.84 33.93 39.32H32.538ZM46.1654 49.128C45.2907 49.128 44.5014 48.9413 43.7974 48.568C43.104 48.1947 42.5547 47.6613 42.1494 46.968C41.7547 46.2747 41.5574 45.464 41.5574 44.536C41.5574 43.6187 41.76 42.8133 42.1654 42.12C42.5707 41.416 43.1254 40.8773 43.8294 40.504C44.5334 40.1307 45.3227 39.944 46.1974 39.944C47.072 39.944 47.8614 40.1307 48.5654 40.504C49.2694 40.8773 49.824 41.416 50.2294 42.12C50.6347 42.8133 50.8374 43.6187 50.8374 44.536C50.8374 45.4533 50.6294 46.264 50.2134 46.968C49.808 47.6613 49.248 48.1947 48.5334 48.568C47.8294 48.9413 47.04 49.128 46.1654 49.128ZM46.1654 46.76C46.688 46.76 47.1307 46.568 47.4934 46.184C47.8667 45.8 48.0534 45.2507 48.0534 44.536C48.0534 43.8213 47.872 43.272 47.5094 42.888C47.1574 42.504 46.72 42.312 46.1974 42.312C45.664 42.312 45.2214 42.504 44.8694 42.888C44.5174 43.2613 44.3414 43.8107 44.3414 44.536C44.3414 45.2507 44.512 45.8 44.8534 46.184C45.2054 46.568 45.6427 46.76 46.1654 46.76Z" fill="white"/>
</svg>
