<svg width="24" height="24" viewBox="0 0 24 24" fill="none" xmlns="http://www.w3.org/2000/svg">
<path d="M18.9474 15.701C19.9524 15.701 20.9163 16.1003 21.6269 16.811C22.3376 17.5216 22.7368 18.4855 22.7368 19.4905C22.7368 20.4955 22.3376 21.4594 21.6269 22.1701C20.9163 22.8807 19.9524 23.28 18.9474 23.28C18.163 23.2823 17.3973 23.0402 16.7567 22.5875C16.1161 22.1348 15.6324 21.4938 15.3726 20.7537H13.8947V18.2274H15.3726C15.8905 16.7495 17.2926 15.701 18.9474 15.701ZM18.9474 18.2274C18.6124 18.2274 18.2911 18.3604 18.0542 18.5973C17.8173 18.8342 17.6842 19.1555 17.6842 19.4905C17.6842 19.8255 17.8173 20.1468 18.0542 20.3837C18.2911 20.6206 18.6124 20.7537 18.9474 20.7537C19.2824 20.7537 19.6037 20.6206 19.8406 20.3837C20.0774 20.1468 20.2105 19.8255 20.2105 19.4905C20.2105 19.1555 20.0774 18.8342 19.8406 18.5973C19.6037 18.3604 19.2824 18.2274 18.9474 18.2274ZM18.9474 6.85894C19.4264 6.85894 19.8859 6.66863 20.2246 6.32989C20.5634 5.99114 20.7537 5.53169 20.7537 5.05263C20.7537 4.57356 20.5634 4.11412 20.2246 3.77537C19.8859 3.43662 19.4264 3.24631 18.9474 3.24631C18.4683 3.24631 18.0089 3.43662 17.6701 3.77537C17.3314 4.11412 17.1411 4.57356 17.1411 5.05263C17.1411 5.53169 17.3314 5.99114 17.6701 6.32989C18.0089 6.66863 18.4683 6.85894 18.9474 6.85894ZM18.9474 0C20.2874 0 21.5726 0.532329 22.5201 1.47988C23.4677 2.42743 24 3.71259 24 5.05263C24 8.82947 18.9474 14.4379 18.9474 14.4379C18.9474 14.4379 13.8947 8.82947 13.8947 5.05263C13.8947 3.71259 14.4271 2.42743 15.3746 1.47988C16.3222 0.532329 17.6073 0 18.9474 0ZM7.36422 18.2274H8.84211V20.7537H7.36422C7.1045 21.4938 6.62076 22.1348 5.98016 22.5875C5.33957 23.0402 4.5739 23.2823 3.78949 23.28C2.78446 23.28 1.82059 22.8807 1.10993 22.1701C0.399263 21.4594 1.58077e-05 20.4955 1.58077e-05 19.4905C1.58077e-05 17.8358 1.04844 16.4337 2.52633 15.9158V14.4379H5.05264V15.9158C6.12633 16.2947 6.98527 17.1537 7.36422 18.2274ZM3.78949 18.2274C3.45448 18.2274 3.13319 18.3604 2.8963 18.5973C2.65941 18.8342 2.52633 19.1555 2.52633 19.4905C2.52633 19.8255 2.65941 20.1468 2.8963 20.3837C3.13319 20.6206 3.45448 20.7537 3.78949 20.7537C4.1245 20.7537 4.44579 20.6206 4.68267 20.3837C4.91956 20.1468 5.05264 19.8255 5.05264 19.4905C5.05264 19.1555 4.91956 18.8342 4.68267 18.5973C4.44579 18.3604 4.1245 18.2274 3.78949 18.2274ZM3.78949 0.543158C4.79452 0.543158 5.75838 0.942404 6.46905 1.65307C7.17971 2.36373 7.57896 3.3276 7.57896 4.33263C7.57896 5.98736 6.53054 7.38947 5.05264 7.90736V9.38526H2.52633V7.90736C1.78615 7.64764 1.14521 7.1639 0.692492 6.5233C0.239774 5.88271 -0.00225309 5.11705 1.58077e-05 4.33263C1.58077e-05 3.3276 0.399263 2.36373 1.10993 1.65307C1.82059 0.942404 2.78446 0.543158 3.78949 0.543158ZM3.78949 3.06947C3.45448 3.06947 3.13319 3.20255 2.8963 3.43944C2.65941 3.67633 2.52633 3.99762 2.52633 4.33263C2.52633 4.66764 2.65941 4.98893 2.8963 5.22582C3.13319 5.4627 3.45448 5.59579 3.78949 5.59579C4.1245 5.59579 4.44579 5.4627 4.68267 5.22582C4.91956 4.98893 5.05264 4.66764 5.05264 4.33263C5.05264 3.99762 4.91956 3.67633 4.68267 3.43944C4.44579 3.20255 4.1245 3.06947 3.78949 3.06947ZM10.1053 20.7537V18.2274H12.6316V20.7537H10.1053ZM5.05264 13.1747H2.52633V10.6484H5.05264V13.1747Z" fill="white"/>
</svg>
