<svg width="48" height="57" viewBox="0 0 48 57" fill="none" xmlns="http://www.w3.org/2000/svg">
<path fill-rule="evenodd" clip-rule="evenodd" d="M8 0C3.58172 0 0 3.58172 0 8V40C0 44.4183 3.58172 48 8 48H18.8038L24 57L29.1962 48H40C44.4183 48 48 44.4183 48 40V8C48 3.58172 44.4183 0 40 0H8Z" fill="#32B18B"/>
<path d="M32 14H19V13H18C17.6994 13.0332 17.4122 13.1424 17.1655 13.3173C16.9188 13.4923 16.7207 13.7273 16.59 14H14V16H15.73C14 21.58 14 33 14 33H19V16H32V14ZM34 19.5C33.9905 19.0292 33.8482 18.5707 33.5895 18.1773C33.3309 17.7838 32.9663 17.4714 32.5379 17.276C32.1095 17.0806 31.6346 17.0102 31.168 17.0728C30.7013 17.1355 30.2618 17.3286 29.9001 17.6301C29.5383 17.9315 29.2691 18.329 29.1233 18.7767C28.9776 19.2244 28.9612 19.7042 29.0761 20.1609C29.1911 20.6175 29.4326 21.0323 29.773 21.3577C30.1133 21.6831 30.5387 21.9057 31 22V33H32V22C32.5732 21.8831 33.0872 21.5689 33.4527 21.1121C33.8181 20.6553 34.0118 20.0849 34 19.5ZM27 22.5V27H26V33H24.5V28H23.5V33H22V27H21V22.5C21 22.1022 21.158 21.7206 21.4393 21.4393C21.7206 21.158 22.1022 21 22.5 21H25.5C25.8978 21 26.2794 21.158 26.5607 21.4393C26.842 21.7206 27 22.1022 27 22.5ZM24 17.5C23.7033 17.5 23.4133 17.588 23.1666 17.7528C22.92 17.9176 22.7277 18.1519 22.6142 18.426C22.5006 18.7001 22.4709 19.0017 22.5288 19.2926C22.5867 19.5836 22.7296 19.8509 22.9393 20.0607C23.1491 20.2704 23.4164 20.4133 23.7074 20.4712C23.9983 20.5291 24.2999 20.4994 24.574 20.3858C24.8481 20.2723 25.0824 20.08 25.2472 19.8334C25.412 19.5867 25.5 19.2967 25.5 19C25.5 18.6022 25.342 18.2206 25.0607 17.9393C24.7794 17.658 24.3978 17.5 24 17.5Z" fill="white"/>
</svg>
