<svg width="12" height="24" viewBox="0 0 12 24" fill="none" xmlns="http://www.w3.org/2000/svg">
<path fill-rule="evenodd" clip-rule="evenodd" d="M5.58689 0C2.49836 0 0 2.49836 0 5.60656C0 8.41843 2.0447 10.7151 4.72128 11.1275V12.5901H3.60002C2.9115 12.5901 2.341 13.082 2.341 13.6918V13.7115V19.6131V19.6328C2.341 20.2426 2.9115 20.7344 3.60002 20.7344H4.72128V22.4262H2.73443C2.51804 22.4262 2.32132 22.6033 2.32132 22.8393V23.2131H2.06555C1.84916 23.2131 1.65244 23.3902 1.65244 23.6262V24L4.72128 24V24H6.29505V24L9.52129 24V23.6262C9.52129 23.3902 9.34424 23.2131 9.10817 23.2131H8.8328V22.8393C8.8328 22.6033 8.65575 22.4262 8.41968 22.4262H6.29505V20.7344H7.57379C8.14339 20.7344 8.61118 20.4163 8.7827 19.9745C8.82347 19.8724 8.84749 19.7634 8.85178 19.65L8.85248 19.6328V19.6145L8.85248 19.6131L8.85248 13.7115L8.85248 13.7115L8.85248 13.7114C8.85247 13.417 8.71945 13.15 8.50436 12.9527C8.27343 12.7309 7.94526 12.5901 7.57379 12.5901H6.29505V11.1491C9.04848 10.8017 11.1738 8.45517 11.1738 5.60656C11.1738 2.51803 8.67541 0 5.58689 0ZM7.69177 2.22858H8.08521C8.45898 2.22858 8.6557 2.60235 8.67537 2.97612V8.38596C8.67537 8.74006 8.41964 9.05481 8.06554 9.05481C7.71144 9.07448 7.47538 8.91711 7.47538 8.46465C7.47538 8.24825 7.21964 8.14989 7.06226 8.14989H4.36718C4.2098 8.14989 3.93439 8.22858 3.93439 8.46465C3.93439 8.91711 3.61964 9.07448 3.26554 9.07448C2.89177 9.07448 2.55734 8.74006 2.55734 8.38596V2.97612C2.55734 2.60235 2.95079 2.22858 3.32456 2.22858H3.718C3.81636 2.22858 3.93439 2.22858 4.03275 2.20891L4.62292 2.05153C4.97701 1.95317 6.43275 1.9335 6.78685 2.03186L7.37701 2.18924C7.47538 2.22858 7.57374 2.22858 7.69177 2.22858ZM4.81968 6.77288C4.81968 7.10968 4.54665 7.38271 4.20984 7.38271C3.87304 7.38271 3.60001 7.10968 3.60001 6.77288C3.60001 6.43607 3.87304 6.16304 4.20984 6.16304C4.54665 6.16304 4.81968 6.43607 4.81968 6.77288ZM7.25901 7.38271C7.59581 7.38271 7.86884 7.10968 7.86884 6.77288C7.86884 6.43607 7.59581 6.16304 7.25901 6.16304C6.9222 6.16304 6.64917 6.43607 6.64917 6.77288C6.64917 7.10968 6.9222 7.38271 7.25901 7.38271ZM4.07214 5.59255H7.39673C7.65246 5.59255 7.86886 5.37616 7.84919 5.12042V3.56632C7.84919 3.31059 7.63279 3.09419 7.37706 3.09419H4.07214C3.8164 3.09419 3.60001 3.31059 3.60001 3.56632V5.12042C3.60001 5.37616 3.8164 5.59255 4.07214 5.59255ZM4.36714 19.1016H6.82615C7.04255 19.1016 7.2196 18.9246 7.2196 18.7082V18.6885C7.2196 18.4721 7.04255 18.295 6.82615 18.295H4.36714C4.15074 18.295 3.97369 18.4721 3.97369 18.6885V18.7082C3.97369 18.9246 4.15074 19.1016 4.36714 19.1016ZM6.82615 17.0754H4.36714C4.15074 17.0754 3.97369 16.8983 3.97369 16.6819V16.6622C3.97369 16.4458 4.15074 16.2688 4.36714 16.2688H6.82615C7.04255 16.2688 7.2196 16.4458 7.2196 16.6622V16.6819C7.2196 16.8983 7.04255 17.0754 6.82615 17.0754ZM4.36714 15.0491H6.82615C7.04255 15.0491 7.2196 14.8721 7.2196 14.6557V14.636C7.2196 14.4196 7.04255 14.2426 6.82615 14.2426H4.36714C4.15074 14.2426 3.97369 14.4196 3.97369 14.636V14.6557C3.97369 14.8721 4.15074 15.0491 4.36714 15.0491Z" fill="white"/>
</svg>
