<svg width="48" height="57" viewBox="0 0 48 57" fill="none" xmlns="http://www.w3.org/2000/svg">
<path fill-rule="evenodd" clip-rule="evenodd" d="M8 0C3.58172 0 0 3.58172 0 8V40C0 44.4183 3.58172 48 8 48H18.8038L24 57L29.1962 48H40C44.4183 48 48 44.4183 48 40V8C48 3.58172 44.4183 0 40 0H8Z" fill="#32B18B"/>
<path d="M36.25 30.75H34.5C34.5 29.7839 34.1582 28.959 33.4746 28.2754C32.791 27.5918 31.9661 27.25 31 27.25C30.0339 27.25 29.209 27.5918 28.5254 28.2754C27.8418 28.959 27.5 29.7839 27.5 30.75H20.5C20.5 29.7839 20.1582 28.959 19.4746 28.2754C18.791 27.5918 17.9661 27.25 17 27.25C16.0339 27.25 15.209 27.5918 14.5254 28.2754C13.8418 28.959 13.5 29.7839 13.5 30.75H11.75C11.2578 30.75 10.8431 30.5814 10.5059 30.2441C10.1686 29.9069 10 29.4922 10 29V22.875C10 20.7057 10.3418 18.8509 11.0254 17.3105C11.709 15.7702 12.5339 15 13.5 15H36.25C36.7422 15 37.1569 15.1732 37.4941 15.5195C37.8314 15.8659 38 16.276 38 16.75V29C38 29.4922 37.8314 29.9069 37.4941 30.2441C37.1569 30.5814 36.7422 30.75 36.25 30.75ZM15.25 19.375C15.25 19.138 15.1634 18.9329 14.9902 18.7598C14.8171 18.5866 14.612 18.5 14.375 18.5H13.5C13.263 18.5 12.9121 18.7324 12.4473 19.1973C11.9824 19.6621 11.75 20.013 11.75 20.25V21.125C11.75 21.362 11.8366 21.5671 12.0098 21.7402C12.1829 21.9134 12.388 22 12.625 22H14.375C14.612 22 14.8171 21.9134 14.9902 21.7402C15.1634 21.5671 15.25 21.362 15.25 21.125V19.375ZM20.5 19.375C20.5 19.138 20.4134 18.9329 20.2402 18.7598C20.0671 18.5866 19.862 18.5 19.625 18.5H17.875C17.638 18.5 17.4329 18.5866 17.2598 18.7598C17.0866 18.9329 17 19.138 17 19.375V21.125C17 21.362 17.0866 21.5671 17.2598 21.7402C17.4329 21.9134 17.638 22 17.875 22H19.625C19.862 22 20.0671 21.9134 20.2402 21.7402C20.4134 21.5671 20.5 21.362 20.5 21.125V19.375ZM25.75 19.375C25.75 19.138 25.6634 18.9329 25.4902 18.7598C25.3171 18.5866 25.112 18.5 24.875 18.5H23.125C22.888 18.5 22.6829 18.5866 22.5098 18.7598C22.3366 18.9329 22.25 19.138 22.25 19.375V21.125C22.25 21.362 22.3366 21.5671 22.5098 21.7402C22.6829 21.9134 22.888 22 23.125 22H24.875C25.112 22 25.3171 21.9134 25.4902 21.7402C25.6634 21.5671 25.75 21.362 25.75 21.125V19.375ZM31 19.375C31 19.138 30.9134 18.9329 30.7402 18.7598C30.5671 18.5866 30.362 18.5 30.125 18.5H28.375C28.138 18.5 27.9329 18.5866 27.7598 18.7598C27.5866 18.9329 27.5 19.138 27.5 19.375V21.125C27.5 21.362 27.5866 21.5671 27.7598 21.7402C27.9329 21.9134 28.138 22 28.375 22H30.125C30.362 22 30.5671 21.9134 30.7402 21.7402C30.9134 21.5671 31 21.362 31 21.125V19.375ZM36.25 19.375C36.25 19.138 36.1634 18.9329 35.9902 18.7598C35.8171 18.5866 35.612 18.5 35.375 18.5H33.625C33.388 18.5 33.1829 18.5866 33.0098 18.7598C32.8366 18.9329 32.75 19.138 32.75 19.375V21.125C32.75 21.362 32.8366 21.5671 33.0098 21.7402C33.1829 21.9134 33.388 22 33.625 22H35.375C35.612 22 35.8171 21.9134 35.9902 21.7402C36.1634 21.5671 36.25 21.362 36.25 21.125V19.375ZM16.9863 29C17.4694 29 17.8841 29.1686 18.2305 29.5059C18.5768 29.8431 18.75 30.2533 18.75 30.7363C18.75 31.2194 18.5768 31.6341 18.2305 31.9805C17.8841 32.3268 17.4694 32.5 16.9863 32.5C16.5033 32.5 16.0931 32.3314 15.7559 31.9941C15.4186 31.6569 15.25 31.2422 15.25 30.75C15.25 30.2578 15.4186 29.8431 15.7559 29.5059C16.0931 29.1686 16.5033 29 16.9863 29ZM31 29C31.4922 29 31.9069 29.1686 32.2441 29.5059C32.5814 29.8431 32.75 30.2533 32.75 30.7363C32.75 31.2194 32.5814 31.6341 32.2441 31.9805C31.9069 32.3268 31.4922 32.5 31 32.5C30.5078 32.5 30.0931 32.3314 29.7559 31.9941C29.4186 31.6569 29.25 31.2422 29.25 30.75C29.25 30.2578 29.4186 29.8431 29.7559 29.5059C30.0931 29.1686 30.5078 29 31 29Z" fill="white"/>
</svg>
